<?xml version="1.0" standalone="no"?>
<!DOCTYPE svg PUBLIC "-//W3C//DTD SVG 20010904//EN"
 "http://www.w3.org/TR/2001/REC-SVG-20010904/DTD/svg10.dtd">
<svg version="1.0" xmlns="http://www.w3.org/2000/svg"
 width="330.000000pt" height="330.000000pt" viewBox="0 0 330.000000 330.000000"
 preserveAspectRatio="xMidYMid meet">
<metadata>
Created by potrace 1.11, written by Peter Selinger 2001-2013
</metadata>
<g transform="translate(0.000000,330.000000) scale(0.100000,-0.100000)"
fill="#000000" stroke="none">
<path d="M490 3282 c0 -5 3 -12 7 -16 7 -7 12 -32 17 -90 2 -21 8 -41 13 -45
5 -3 10 -18 10 -33 1 -16 2 -30 3 -33 1 -3 4 -9 5 -15 1 -5 3 -11 5 -12 1 -2
3 -12 5 -23 1 -11 5 -35 9 -52 8 -44 17 -92 22 -128 3 -16 6 -37 8 -45 2 -14
10 -69 23 -150 6 -40 12 -97 17 -155 3 -22 5 -40 6 -40 3 0 12 -101 26 -325
13 -199 7 -725 -8 -747 -5 -6 -5 -14 2 -18 6 -3 7 -11 4 -17 -4 -5 -8 -36 -10
-67 -2 -31 -6 -81 -9 -111 -4 -30 -7 -70 -8 -87 -1 -18 -6 -33 -12 -33 -5 0
-3 -5 5 -10 8 -5 10 -10 5 -10 -6 0 -11 -15 -12 -32 -1 -32 -7 -78 -19 -148
-7 -42 -13 -80 -18 -117 -2 -16 -6 -41 -9 -58 -4 -16 -9 -46 -13 -65 -7 -43
-12 -65 -14 -65 -2 0 -12 -67 -13 -87 -1 -10 -4 -18 -8 -18 -3 0 -9 -19 -13
-42 -12 -77 -13 -83 -15 -83 -3 0 -9 -23 -17 -65 -3 -19 -10 -43 -16 -53 -5
-10 -7 -21 -4 -24 3 -3 -1 -18 -9 -33 -8 -15 -11 -30 -8 -34 4 -3 2 -6 -3 -6
-5 0 -10 -14 -11 -30 -3 -37 4 -37 39 -5 15 14 29 25 32 25 3 0 34 20 69 45
36 25 69 45 75 45 6 0 12 4 14 8 4 11 115 82 128 82 6 0 10 4 10 8 0 5 15 16
33 25 17 9 59 32 92 52 33 19 75 43 92 52 18 9 33 20 33 25 0 4 4 8 9 8 10 0
98 79 195 176 120 120 191 203 278 327 32 45 62 87 68 94 5 7 10 16 10 21 0 4
9 18 20 30 12 12 18 22 15 22 -3 0 6 18 20 40 14 22 25 46 25 55 0 8 5 15 11
15 5 0 7 5 4 10 -3 6 -1 10 4 10 6 0 11 9 11 19 0 11 5 23 10 26 6 4 8 11 5
16 -4 5 -2 9 2 9 5 0 15 21 22 48 8 26 18 54 22 62 7 14 23 75 19 75 -1 0 3
13 9 28 13 34 24 105 25 169 1 27 3 48 6 48 3 0 5 25 5 55 0 30 -2 55 -5 55
-3 0 -5 19 -6 43 -1 65 -15 152 -24 155 -5 2 -6 10 -3 18 3 8 1 20 -4 27 -6 6
-15 34 -22 60 -6 27 -18 59 -26 71 -8 13 -12 26 -8 29 3 4 2 7 -4 7 -10 0 -26
36 -24 53 1 4 -4 7 -10 7 -5 0 -7 5 -4 10 3 6 1 10 -4 10 -6 0 -11 6 -11 13 0
7 -9 23 -20 35 -12 12 -18 22 -15 22 3 0 -5 15 -19 33 -15 19 -26 39 -26 45 0
6 -3 12 -7 14 -5 2 -28 28 -53 58 -24 30 -53 62 -62 71 -10 9 -18 19 -18 21 0
11 -101 105 -147 138 -26 19 -50 36 -53 39 -3 4 -27 22 -55 40 -27 19 -52 37
-55 41 -3 3 -17 11 -32 19 -15 8 -37 22 -47 33 -11 10 -23 18 -26 18 -4 0 -26
14 -50 30 -24 17 -47 30 -51 30 -3 0 -15 10 -25 22 -11 11 -19 18 -19 14 0 -6
-48 21 -60 34 -3 3 -18 12 -35 20 -16 8 -53 29 -82 47 -29 18 -55 33 -58 33
-4 0 -27 12 -53 27 -26 16 -50 28 -54 28 -4 0 -17 8 -28 18 -21 18 -50 23 -50
9z"/>
<path d="M1646 2495 c4 -8 10 -15 15 -15 5 0 9 -6 9 -14 0 -8 4 -16 8 -18 11
-4 67 -101 64 -111 -1 -4 5 -10 13 -13 8 -3 13 -10 10 -14 -3 -5 -1 -11 5 -15
5 -3 10 -14 10 -24 0 -10 7 -24 15 -31 8 -7 15 -23 15 -36 0 -13 4 -24 10 -24
5 0 7 -7 4 -15 -4 -8 -1 -15 6 -15 6 0 8 -5 5 -10 -4 -6 -2 -16 3 -23 9 -11
14 -30 27 -102 2 -11 8 -39 13 -62 7 -29 7 -43 0 -43 -7 0 -7 -4 -1 -12 6 -7
11 -44 12 -83 2 -38 5 -73 7 -77 2 -3 0 -9 -5 -13 -5 -3 -8 -15 -6 -27 3 -12
0 -27 -6 -35 -8 -9 -8 -13 -1 -13 6 0 9 -6 7 -12 -2 -7 -7 -25 -10 -40 -13
-67 -17 -85 -27 -123 -16 -57 -16 -58 -22 -83 -3 -13 -12 -36 -20 -52 -8 -17
-17 -43 -21 -60 -4 -16 -11 -30 -16 -30 -5 0 -9 -6 -9 -13 0 -17 -80 -171
-102 -197 -10 -11 -15 -20 -12 -20 3 0 -10 -23 -30 -50 -20 -28 -36 -55 -36
-61 0 -5 -4 -7 -10 -4 -5 3 -10 1 -10 -5 0 -11 -76 -116 -109 -152 -9 -9 -41
-44 -71 -78 -30 -34 -75 -82 -100 -107 -25 -25 -35 -40 -23 -34 18 9 63 29 83
36 3 1 19 7 35 14 17 6 34 11 39 10 5 0 12 5 17 12 4 7 14 14 21 15 8 1 40 13
71 28 32 14 61 26 65 26 4 0 24 9 45 20 20 11 37 17 37 14 0 -4 7 -1 15 6 8 7
15 9 15 5 0 -4 6 -3 13 3 6 5 32 17 57 25 25 9 75 27 113 40 37 14 67 23 67
20 0 -3 7 0 15 7 8 7 15 10 15 6 0 -4 13 0 30 9 16 8 31 15 32 15 2 -1 10 1
18 4 47 17 199 53 204 48 3 -3 6 0 6 6 0 6 8 11 18 10 9 0 28 3 42 6 14 3 36
8 50 12 42 9 55 12 58 14 1 2 10 3 20 4 9 1 31 5 47 9 17 4 39 9 50 11 11 3
65 14 120 26 55 12 111 24 125 26 14 3 37 9 52 15 l27 11 -20 31 c-10 18 -22
39 -26 47 -7 17 -96 151 -144 220 -18 25 -57 81 -87 125 -31 44 -74 104 -96
133 -97 125 -199 253 -220 276 -6 6 -40 45 -76 86 -36 41 -91 101 -122 134
-32 32 -58 61 -58 65 0 3 -14 15 -30 26 -16 11 -30 26 -30 34 0 8 -2 12 -5 9
-3 -2 -42 32 -87 76 -46 45 -103 97 -127 116 -24 19 -57 47 -72 63 -31 30 -41
34 -33 12z"/>
<path d="M2775 970 c-4 -6 -11 -8 -16 -5 -5 4 -15 3 -21 -2 -7 -4 -26 -9 -43
-10 -34 -2 -53 -7 -76 -17 -9 -4 -20 -6 -25 -5 -5 1 -11 0 -14 -1 -11 -4 -46
-11 -67 -13 -13 -1 -23 -5 -23 -9 0 -3 -8 -5 -17 -3 -10 1 -25 -1 -34 -6 -9
-4 -27 -10 -40 -13 -13 -2 -73 -18 -134 -36 -60 -17 -117 -33 -125 -35 -8 -2
-35 -11 -60 -20 -49 -18 -52 -18 -95 -30 -16 -4 -36 -13 -44 -19 -8 -6 -16
-10 -17 -9 -8 5 -65 -10 -70 -18 -3 -5 -11 -9 -19 -9 -8 0 -26 -5 -42 -12 -15
-6 -30 -12 -33 -13 -8 -3 -40 -16 -114 -46 -38 -16 -73 -26 -78 -23 -4 3 -8
-2 -8 -11 0 -9 -5 -13 -10 -10 -9 5 -95 -30 -110 -45 -3 -3 -14 -7 -25 -8 -11
-2 -23 -8 -26 -14 -3 -5 -10 -10 -15 -10 -24 -2 -44 -11 -44 -20 0 -5 -4 -7
-9 -3 -5 3 -12 1 -16 -5 -4 -6 -10 -8 -15 -5 -5 3 -14 -1 -22 -8 -10 -10 -74
-45 -98 -53 -3 -1 -15 -5 -27 -9 -13 -4 -20 -11 -17 -16 3 -5 -1 -9 -8 -9 -16
0 -118 -51 -136 -67 -7 -7 -20 -13 -28 -13 -8 0 -14 -4 -14 -10 0 -5 -6 -10
-13 -10 -8 0 -24 -9 -37 -20 -13 -11 -29 -20 -37 -20 -7 0 -13 -3 -13 -8 0 -4
-15 -13 -33 -21 -17 -8 -34 -17 -37 -20 -10 -12 -90 -61 -99 -61 -5 0 -11 -7
-15 -15 -3 -8 -12 -15 -21 -15 -8 0 -15 -4 -15 -9 0 -5 -13 -14 -30 -21 -16
-7 -43 -25 -59 -40 -16 -16 -33 -25 -37 -22 -4 4 -4 2 -1 -5 5 -8 20 -5 50 12
24 12 54 26 68 30 13 4 42 16 64 26 22 10 47 19 55 21 8 2 21 9 28 15 7 7 22
13 33 13 10 0 19 5 19 10 0 6 3 9 8 8 15 -3 62 15 62 24 0 5 4 7 9 4 4 -3 33
6 62 20 30 15 59 27 64 29 13 3 65 23 90 35 17 8 67 29 85 35 3 1 23 10 45 21
22 10 45 19 50 19 6 1 21 7 35 15 14 8 27 15 30 15 3 1 18 7 33 13 16 7 32 12
36 12 4 0 27 10 52 22 24 11 50 21 57 21 6 0 12 3 12 7 0 4 25 15 55 25 30 11
55 23 55 29 0 5 3 6 6 3 4 -3 16 -1 28 5 11 7 23 13 26 13 3 1 16 6 30 12 14
6 59 24 100 41 41 17 98 40 125 53 28 12 52 23 55 24 29 7 80 31 80 37 0 4 3
7 8 6 4 -1 23 4 42 11 19 8 37 15 40 16 3 1 19 8 35 15 17 7 32 14 35 14 6 2
271 113 330 139 25 11 51 20 58 20 6 0 12 4 12 9 0 4 9 8 19 8 11 0 22 4 26 9
3 5 18 12 34 16 25 5 65 35 48 35 -3 0 -9 -5 -12 -10z"/>
</g>
</svg>
