<?xml version="1.0" encoding="UTF-8" standalone="no"?>
<svg width="15px" height="20px" viewBox="0 0 15 20" version="1.1" xmlns="http://www.w3.org/2000/svg" xmlns:xlink="http://www.w3.org/1999/xlink">
    <!-- Generator: Sketch 43.1 (39012) - http://www.bohemiancoding.com/sketch -->
    <title>trendingcause_icon</title>
    <desc>Created with Sketch.</desc>
    <defs></defs>
    <g id="Symbols" stroke="none" stroke-width="1" fill="none" fill-rule="evenodd">
        <g id="menu_closed_logged" transform="translate(-25.000000, -226.000000)" fill-rule="nonzero" fill="#CCCCCC">
            <g id="icons_menu">
                <g transform="translate(21.000000, 110.000000)">
                    <path d="M9.41935484,133.52381 C9.83064516,132.5 10.6048387,131.761905 11.5725806,131.357143 C11.6935484,131.309524 11.8145161,131.404762 11.7903226,131.547619 C11.3064516,133.261905 12.0806452,135.071429 13.6532258,135.952381 C16.7258065,135.047619 19,132.214286 19,128.857143 C19,127.714286 18.2016129,126.190476 17.1129032,124.428571 C17.0645161,124.333333 16.9193548,124.380952 16.9193548,124.47619 C16.8467742,125.571429 16.2177419,128.357143 15.2258065,127.619048 C15.1532258,127.571429 15.1290323,127.47619 15.1290323,127.380952 L15.1774194,127.166667 C15.6612903,124.785714 13.9677419,123.119048 12.7580645,120.97619 C11.7903226,119.238095 12.5403226,117.047619 12.8548387,116.261905 C12.8790323,116.190476 12.7822581,116.095238 12.7096774,116.166667 C8.64516129,119.095238 7.94354839,121.095238 8.13709677,122.428571 C8.33064516,123.690476 9.34677419,124.52381 9.10483871,126 C8.98387097,126.809524 8.5,127.5 7.96774194,128.02381 C7.91935484,128.071429 7.7983871,128.095238 7.72580645,128.095238 C6.83064516,127.880952 6.15322581,126.02381 5.88709677,125.047619 C5.83870968,124.833333 5.5483871,124.809524 5.4516129,125 C4.60483871,126.47619 4,127.880952 4,128.857143 C4,132.166667 6.22580645,134.97619 9.27419355,135.904762 C9.08064516,135.142857 9.10483871,134.309524 9.41935484,133.52381 Z" id="trendingcause_icon"></path>
                </g>
            </g>
        </g>
    </g>
</svg>