<?xml version="1.0" encoding="UTF-8" standalone="no"?>
<svg width="20px" height="19px" viewBox="0 0 20 19" version="1.1" xmlns="http://www.w3.org/2000/svg" xmlns:xlink="http://www.w3.org/1999/xlink">
    <!-- Generator: Sketch 43.1 (39012) - http://www.bohemiancoding.com/sketch -->
    <title>wanderlust_icon</title>
    <desc>Created with Sketch.</desc>
    <defs></defs>
    <g id="Symbols" stroke="none" stroke-width="1" fill="none" fill-rule="evenodd">
        <g id="menu_closed_logged" transform="translate(-22.000000, -269.000000)" fill-rule="nonzero" fill="#CCCCCC">
            <g id="icons_menu">
                <g transform="translate(21.000000, 110.000000)">
                    <path d="M20.3333333,162.266667 L20.3333333,162.266667 C20.7333333,162.133333 21,161.733333 21,161.333333 C21,160.8 20.5333333,160.333333 20,160.333333 C19.4666667,160.333333 19,160.8 19,161.333333 C19,161.8 19.2666667,162.133333 19.6666667,162.266667 L19.6666667,162.266667 L19.6666667,165.8 C19.6,165.8 19.5333333,165.733333 19.4666667,165.733333 C18.5333333,161.866667 15.1333333,159 11,159 C6.86666667,159 3.46666667,161.866667 2.53333333,165.733333 C1.66666667,165.933333 1,166.733333 1,167.666667 C1,168.6 1.66666667,169.4 2.53333333,169.6 C2.86666667,170.933333 3.46666667,172.133333 4.33333333,173.2 L4.33333333,175 C4.33333333,175 5.66666667,177.666667 11,177.666667 C16.3333333,177.666667 17.6666667,175 17.6666667,175 L17.6666667,173.2 C18.5333333,172.2 19.1333333,170.933333 19.4666667,169.6 C20.3333333,169.4 21,168.6 21,167.666667 C21,167.066667 20.7333333,166.533333 20.3333333,166.2 L20.3333333,162.266667 Z M18.4,169.6 C18.0666667,170.933333 17.4,172.066667 16.4666667,173 C15.0666667,174.466667 13.1333333,173 11,173 C8.86666667,173 6.86666667,174.466667 5.53333333,173 C4.6,172.066667 3.93333333,170.866667 3.6,169.6 C3.4,168.933333 3.33333333,168.333333 3.33333333,167.666667 C3.33333333,167 3.4,166.4 3.6,165.733333 C4.46666667,162.4 7.46666667,161.333333 11,161.333333 C14.6,161.333333 17.6,162.466667 18.4,165.733333 C18.5333333,166.333333 18.6666667,167 18.6666667,167.666667 C18.6666667,168.333333 18.6,168.933333 18.4,169.6 Z M11,162.933333 C8.33333333,162.933333 6.13333333,163.8 5.46666667,166.266667 C5.33333333,166.733333 5.26666667,167.2 5.26666667,167.666667 C5.26666667,168.133333 5.33333333,168.6 5.46666667,169.066667 L5.53333333,169.2 C6.86666667,168.133333 9.06666667,166.933333 12,166.933333 C9.2,168.066667 7.4,169.666667 6.4,170.933333 C6.6,171.2 6.73333333,171.4 6.93333333,171.6 C7.26666667,171.933333 7.66666667,172.066667 8.06666667,172.066667 C8.93333333,172.066667 9.93333333,171.6 11,171.6 C12.0666667,171.6 13.0666667,172.066667 13.9333333,172.066667 C14.3333333,172.066667 14.7333333,171.933333 15.0666667,171.6 C15.7333333,170.866667 16.2666667,170 16.4666667,169.066667 C16.6,168.6 16.6666667,168.133333 16.6666667,167.666667 C16.6666667,167.2 16.6,166.733333 16.4666667,166.266667 C15.8666667,163.733333 13.6666667,162.933333 11,162.933333 Z" id="wanderlust_icon"></path>
                </g>
            </g>
        </g>
    </g>
</svg>