<?xml version="1.0" encoding="UTF-8"?>
<svg width="14px" height="19px" viewBox="0 0 14 19" version="1.1" xmlns="http://www.w3.org/2000/svg" xmlns:xlink="http://www.w3.org/1999/xlink">
    <!-- Generator: Sketch 43.2 (39069) - http://www.bohemiancoding.com/sketch -->
    <title>deslike-icon</title>
    <desc>Created with Sketch.</desc>
    <defs></defs>
    <g id="player_v01" stroke="none" stroke-width="1" fill="none" fill-rule="evenodd">
        <g id="mvp-paused-signup" transform="translate(-298.000000, -202.000000)" stroke="#FFFFFF" stroke-width="1.5">
            <g id="stas-video" transform="translate(93.000000, 202.000000)">
                <path d="M206,8.30813467 L206,15.5608442 L207.574907,16.1436137 C208.249422,16.3858929 209.014288,16.651483 209.756566,16.8498157 C210.498454,17.0485305 211.218145,17.1811344 211.9834,17.2686454 C212.747876,17.3573028 213.557139,17.4012493 214.141692,17.3798493 C214.726635,17.3576849 215.08687,17.2690275 215.402319,17.1146414 C215.716599,16.9602553 215.986483,16.7389939 216.189383,16.4963325 C216.391504,16.2536711 216.52664,15.9888454 216.594014,15.7683484 C216.661777,15.5478513 216.661777,15.3709187 216.683586,15.1943682 C216.706563,15.0174355 216.751349,14.8412672 216.796524,14.7086633 C216.84131,14.5764415 216.886486,14.4881662 216.95347,14.3559444 L217.178957,13.8924038 C217.246331,13.7376355 217.291117,13.6050316 217.314094,13.4288633 C217.335903,13.2523128 217.335903,13.0310514 217.335903,12.8331009 C217.335903,12.634386 217.335903,12.4574534 217.381078,12.2595028 C217.425864,12.060788 217.516215,11.8399088 217.583978,11.6629762 L217.740923,11.2215999 C217.786488,11.0893781 217.831274,10.9571564 217.831274,10.8245524 C217.831274,10.6919485 217.786488,10.5597267 217.740923,10.4267406 C217.695748,10.2945188 217.650962,10.162297 217.650962,10.0518574 C217.650962,9.9414178 217.695748,9.85314255 217.763511,9.69837426 C217.831274,9.54437026 217.920456,9.32310893 217.966411,9.08082968 C218.011196,8.83778615 218.011196,8.57296041 217.966411,8.30813467 C217.920456,8.04407322 217.831274,7.77810104 217.67355,7.5358218 C217.516215,7.2931604 217.291117,7.07266336 217.04421,6.91789507 C216.796524,6.76312678 216.52664,6.67485153 215.986483,6.63052284 C215.446715,6.58657629 214.637453,6.58657629 214.119883,6.56441194 C213.602703,6.54262974 213.377605,6.49868319 213.265446,6.45435449 C213.152897,6.4100258 213.152897,6.36607924 213.242469,6.18952875 C213.332819,6.01297826 213.512353,5.70420597 213.647489,5.37288718 C213.782237,5.0415684 213.872977,4.68884956 213.917763,4.29103773 C213.962549,3.8939902 213.962549,3.45261396 213.917763,3.05556643 C213.872977,2.65813675 213.782237,2.30503576 213.602703,1.99626347 C213.422391,1.68749118 213.152897,1.42228329 212.770075,1.2457328 C212.387642,1.06956445 211.893049,0.980907062 211.511006,1.00345355 C211.128573,1.02523576 210.8583,1.15745756 210.678766,1.42228329 C210.498454,1.68749118 210.408883,2.08453872 210.318921,2.59240799 C210.228181,3.09989512 210.138999,3.7174397 209.778764,4.42402382 C209.418919,5.12984365 208.789579,5.92432087 208.246696,6.52046539 C207.704202,7.11660991 207.249333,7.51365745 206.888709,7.77924748 C206.529253,8.04407322 206.264432,8.17591287 206,8.30813467 Z" id="deslike-icon" transform="translate(212.000000, 9.192600) scale(1, -1) translate(-212.000000, -9.192600) "></path>
            </g>
        </g>
    </g>
</svg>