<?xml version="1.0" encoding="UTF-8" standalone="no"?>
<svg width="10px" height="13px" viewBox="0 0 10 13" version="1.1" xmlns="http://www.w3.org/2000/svg" xmlns:xlink="http://www.w3.org/1999/xlink">
    <!-- Generator: Sketch 43.1 (39012) - http://www.bohemiancoding.com/sketch -->
    <title>likesmall-icon</title>
    <desc>Created with Sketch.</desc>
    <defs></defs>
    <g id="player_v01" stroke="none" stroke-width="1" fill="none" fill-rule="evenodd">
        <g id="mvp-playlist" transform="translate(-220.000000, -312.000000)" fill="#B3B3B3">
            <g id="Video-Card-Copy" transform="translate(85.000000, 181.000000)">
                <g id="footer" transform="translate(0.000000, 105.000000)">
                    <path d="M135.491792,31.6762759 L135.491792,37.3092135 L136.71497,37.7618311 C137.238843,37.9500013 137.832889,38.1562762 138.409391,38.3103146 C138.985592,38.4646498 139.544551,38.5676388 140.138899,38.6356057 C140.732643,38.7044629 141.36117,38.7385947 141.815173,38.721974 C142.269479,38.7047597 142.549261,38.6359025 142.794259,38.5159959 C143.038351,38.3960893 143.24796,38.224243 143.405546,38.035776 C143.562526,37.847309 143.667482,37.6416277 143.719809,37.470375 C143.772439,37.2991223 143.772439,37.1617046 143.789377,37.0245837 C143.807222,36.8871661 143.842006,36.750342 143.877092,36.6473529 C143.911876,36.5446607 143.946962,36.4761002 143.998987,36.373408 L144.174115,36.0133915 C144.226442,35.8931881 144.261226,35.790199 144.279071,35.653375 C144.296009,35.5162541 144.296009,35.3444078 144.296009,35.1906662 C144.296009,35.036331 144.296009,34.8989133 144.331096,34.7451717 C144.365879,34.5908366 144.436052,34.4192871 144.488681,34.2818694 L144.610575,33.9390672 C144.645964,33.8363749 144.680748,33.7336827 144.680748,33.6306936 C144.680748,33.5277046 144.645964,33.4250123 144.610575,33.3217264 C144.575489,33.2190342 144.540705,33.1163419 144.540705,33.0305672 C144.540705,32.9447924 144.575489,32.876232 144.628119,32.7560286 C144.680748,32.6364188 144.750013,32.4645725 144.785704,32.2764023 C144.820488,32.0876385 144.820488,31.8819572 144.785704,31.6762759 C144.750013,31.4711882 144.680748,31.2646165 144.558249,31.0764462 C144.436052,30.8879792 144.261226,30.7167265 144.069461,30.5965232 C143.877092,30.4763198 143.667482,30.4077594 143.24796,30.3733307 C142.828741,30.3391989 142.200214,30.3391989 141.798235,30.3219846 C141.396558,30.3050671 141.221732,30.2709353 141.134622,30.2365067 C141.047208,30.2020781 141.047208,30.1679462 141.116776,30.0308254 C141.186948,29.8937045 141.326386,29.6538913 141.431342,29.3965671 C141.535996,29.1392428 141.60647,28.8652979 141.641254,28.5563307 C141.676038,28.2479571 141.676038,27.9051549 141.641254,27.5967814 C141.60647,27.288111 141.535996,27.0138692 141.396558,26.7740561 C141.256516,26.534243 141.047208,26.3282648 140.749883,26.191144 C140.45286,26.0543199 140.068727,25.9854626 139.772006,26.0029737 C139.474984,26.0198913 139.265071,26.1225835 139.125634,26.3282648 C138.985592,26.534243 138.916024,26.8426165 138.846154,27.2370617 C138.775679,27.63121 138.706414,28.1108363 138.426632,28.6596166 C138.147152,29.2078033 137.658365,29.8248472 137.236726,30.2878528 C136.815389,30.7508584 136.462107,31.0592319 136.182022,31.2655069 C135.902845,31.4711882 135.697167,31.5735836 135.491792,31.6762759 Z" id="likesmall-icon"></path>
                </g>
            </g>
        </g>
    </g>
</svg>