<?xml version="1.0" encoding="UTF-8"?>
<svg width="12px" height="17px" viewBox="0 0 12 17" version="1.1" xmlns="http://www.w3.org/2000/svg" xmlns:xlink="http://www.w3.org/1999/xlink">
    <!-- Generator: Sketch 43.2 (39069) - http://www.bohemiancoding.com/sketch -->
    <title>like-icon</title>
    <desc>Created with Sketch.</desc>
    <defs></defs>
    <g id="player_v01" stroke="none" stroke-width="1" fill="none" fill-rule="evenodd">
        <g id="mvp-paused-signup" transform="translate(-220.000000, -202.000000)" fill="#FFFFFF">
            <g id="stas-video" transform="translate(93.000000, 202.000000)">
                <path d="M127,7.30813467 L127,14.5608442 L128.574907,15.1436137 C129.249422,15.3858929 130.014288,15.651483 130.756566,15.8498157 C131.498454,16.0485305 132.218145,16.1811344 132.9834,16.2686454 C133.747876,16.3573028 134.557139,16.4012493 135.141692,16.3798493 C135.726635,16.3576849 136.08687,16.2690275 136.402319,16.1146414 C136.716599,15.9602553 136.986483,15.7389939 137.189383,15.4963325 C137.391504,15.2536711 137.52664,14.9888454 137.594014,14.7683484 C137.661777,14.5478513 137.661777,14.3709187 137.683586,14.1943682 C137.706563,14.0174355 137.751349,13.8412672 137.796524,13.7086633 C137.84131,13.5764415 137.886486,13.4881662 137.95347,13.3559444 L138.178957,12.8924038 C138.246331,12.7376355 138.291117,12.6050316 138.314094,12.4288633 C138.335903,12.2523128 138.335903,12.0310514 138.335903,11.8331009 C138.335903,11.634386 138.335903,11.4574534 138.381078,11.2595028 C138.425864,11.060788 138.516215,10.8399088 138.583978,10.6629762 L138.740923,10.2215999 C138.786488,10.0893781 138.831274,9.95715635 138.831274,9.82455241 C138.831274,9.69194847 138.786488,9.55972667 138.740923,9.42674058 C138.695748,9.29451879 138.650962,9.16229699 138.650962,9.05185739 C138.650962,8.9414178 138.695748,8.85314255 138.763511,8.69837426 C138.831274,8.54437026 138.920456,8.32310893 138.966411,8.08082968 C139.011196,7.83778615 139.011196,7.57296041 138.966411,7.30813467 C138.920456,7.04407322 138.831274,6.77810104 138.67355,6.5358218 C138.516215,6.2931604 138.291117,6.07266336 138.04421,5.91789507 C137.796524,5.76312678 137.52664,5.67485153 136.986483,5.63052284 C136.446715,5.58657629 135.637453,5.58657629 135.119883,5.56441194 C134.602703,5.54262974 134.377605,5.49868319 134.265446,5.45435449 C134.152897,5.4100258 134.152897,5.36607924 134.242469,5.18952875 C134.332819,5.01297826 134.512353,4.70420597 134.647489,4.37288718 C134.782237,4.0415684 134.872977,3.68884956 134.917763,3.29103773 C134.962549,2.8939902 134.962549,2.45261396 134.917763,2.05556643 C134.872977,1.65813675 134.782237,1.30503576 134.602703,0.996263469 C134.422391,0.687491178 134.152897,0.422283295 133.770075,0.245732802 C133.387642,0.0695644524 132.893049,-0.019092938 132.511006,0.00345355349 C132.128573,0.0252357572 131.8583,0.157457555 131.678766,0.422283295 C131.498454,0.687491178 131.408883,1.08453872 131.318921,1.59240799 C131.228181,2.09989512 131.138999,2.7174397 130.778764,3.42402382 C130.418919,4.12984365 129.789579,4.92432087 129.246696,5.52046539 C128.704202,6.11660991 128.249333,6.51365745 127.888709,6.77924748 C127.529253,7.04407322 127.264432,7.17591287 127,7.30813467 Z" id="like-icon"></path>
            </g>
        </g>
    </g>
</svg>