<?xml version="1.0" encoding="UTF-8" standalone="no"?>
<svg width="9px" height="11px" viewBox="0 0 9 11" version="1.1" xmlns="http://www.w3.org/2000/svg" xmlns:xlink="http://www.w3.org/1999/xlink">
    <!-- Generator: Sketch 43.1 (39012) - http://www.bohemiancoding.com/sketch -->
    <title>lock_icon</title>
    <desc>Created with Sketch.</desc>
    <defs></defs>
    <g id="Symbols" stroke="none" stroke-width="1" fill="none" fill-rule="evenodd">
        <g id="menu_open_signup" transform="translate(-161.000000, -112.000000)" fill-rule="nonzero" fill="#CCCCCC">
            <g id="icons_menu" transform="translate(21.000000, 110.000000)">
                <path d="M147.483399,7.04498886 L147.111467,7.04498886 L147.111467,5.2309397 L147.106946,5.2309397 C147.108001,5.2003774 147.111467,5.17054976 147.111467,5.13984053 C147.111467,3.48697815 145.736916,2.14679167 144.04092,2.14679167 C142.34658,2.14679167 140.97203,3.48697815 140.97203,5.13984053 C140.97203,5.17054976 140.974743,5.2003774 140.975647,5.2309397 L140.97203,5.2309397 L140.97203,7.04498886 L140.599194,7.04498886 C140.29116,7.04498886 140.041296,7.28845876 140.041296,7.58893912 L140.041296,11.943186 C140.041296,12.2436664 140.291009,12.4871363 140.599194,12.4871363 L147.483399,12.4871363 C147.791584,12.4871363 148.041296,12.2436664 148.041296,11.943186 L148.041296,7.58893912 C148.041447,7.28845876 147.791584,7.04498886 147.483399,7.04498886 Z M145.622986,5.2309397 L145.622986,7.04498886 L142.459757,7.04498886 L142.459757,5.2309397 L142.465182,5.2309397 C142.463374,5.2003774 142.459757,5.17054976 142.459757,5.13984053 C142.459757,4.288504 143.167754,3.59820731 144.04092,3.59820731 C144.914085,3.59820731 145.622986,4.288504 145.622986,5.13984053 C145.622986,5.17054976 145.620273,5.2003774 145.618616,5.2309397 L145.622986,5.2309397 Z" id="lock_icon"></path>
            </g>
        </g>
    </g>
</svg>