<?xml version="1.0" encoding="UTF-8" standalone="no"?>
<svg width="20px" height="15px" viewBox="0 0 20 15" version="1.1" xmlns="http://www.w3.org/2000/svg" xmlns:xlink="http://www.w3.org/1999/xlink">
    <!-- Generator: Sketch 43.1 (39012) - http://www.bohemiancoding.com/sketch -->
    <title>myvideos_icon</title>
    <desc>Created with Sketch.</desc>
    <defs></defs>
    <g id="Symbols" stroke="none" stroke-width="1" fill="none" fill-rule="evenodd">
        <g id="menu_closed_logged" transform="translate(-22.000000, -151.000000)" fill-rule="nonzero" fill="#CCCCCC">
            <g id="icons_menu">
                <g transform="translate(21.000000, 110.000000)">
                    <path d="M16.2486523,49.7480207 L16.2486523,52.6779124 C16.2486523,54.3062591 14.9242158,55.6260356 13.2901196,55.6260356 L13.2556391,55.6260356 L13.2556391,53.2146939 C13.2556391,51.1081508 10.7697494,50.0491236 8.65538847,50.0491236 C6.54102757,50.0491236 4.05513784,51.1081508 4.05513784,53.2146939 L4.05513784,55.6260356 L3.98849282,55.6260356 C2.3543966,55.6260356 1.02996013,54.3062591 1.02996013,52.6779124 L1.02996013,43.9976548 C1.02996013,42.3693081 2.3543966,41.0495316 3.98849282,41.0495316 L13.2901196,41.0495316 C14.9242158,41.0495316 16.2486523,42.3693081 16.2486523,43.9976548 L16.2486523,46.8304512 C17.2246791,45.2980511 18.7956833,43.2803324 19.79626,44.2773886 C21.3345375,45.8102537 21.1721372,51.0261596 19.79626,52.3971959 C18.8898062,53.3004603 17.2571798,51.2513801 16.2486523,49.7480207 Z M10.8319549,47.1413685 C10.8319549,45.938764 9.86105263,44.9627371 8.65398496,44.9627371 C7.44691729,44.9627371 6.46726817,45.938764 6.46726817,47.1413685 C6.46726817,48.3439731 7.44691729,49.32 8.65398496,49.32 C9.86105263,49.32 10.8319549,48.3439731 10.8319549,47.1413685 Z" id="myvideos_icon"></path>
                </g>
            </g>
        </g>
    </g>
</svg>