<?xml version="1.0" encoding="UTF-8" standalone="no"?>
<svg width="20px" height="20px" viewBox="0 0 20 20" version="1.1" xmlns="http://www.w3.org/2000/svg" xmlns:xlink="http://www.w3.org/1999/xlink">
    <!-- Generator: Sketch 43.1 (39012) - http://www.bohemiancoding.com/sketch -->
    <title>playlists_icon</title>
    <desc>Created with Sketch.</desc>
    <defs></defs>
    <g id="Symbols" stroke="none" stroke-width="1" fill="none" fill-rule="evenodd">
        <g id="menu_closed_logged" transform="translate(-22.000000, -188.000000)" fill="#CCCCCC">
            <g id="icons_menu">
                <g transform="translate(21.000000, 110.000000)">
                    <path d="M3,84 L3,82 L19,82 L19,84 L3,84 Z M5,78 L5,80 L17,80 L17,78 L5,78 Z M21,96 C21,97.1 20.1,98 19,98 L3,98 C1.9,98 1,97.1 1,96 L1,88 C1,86.9 1.9,86 3,86 L19,86 C20.1,86 21,86.9 21,88 L21,96 Z M9,88.73 L9,95.26 L15,92 L9,88.73 Z" id="playlists_icon"></path>
                </g>
            </g>
        </g>
    </g>
</svg>