<?xml version="1.0" encoding="UTF-8" standalone="no"?>
<svg width="22px" height="15px" viewBox="0 0 22 15" version="1.1" xmlns="http://www.w3.org/2000/svg" xmlns:xlink="http://www.w3.org/1999/xlink">
    <!-- Generator: Sketch 43.1 (39012) - http://www.bohemiancoding.com/sketch -->
    <title>upload_icon</title>
    <desc>Created with Sketch.</desc>
    <defs></defs>
    <g id="Symbols" stroke="none" stroke-width="1" fill="none" fill-rule="evenodd">
        <g id="menu_closed_logged" transform="translate(-21.000000, -110.000000)" fill="#CCCCCC">
            <g id="icons_menu">
                <g transform="translate(21.000000, 110.000000)">
                    <path d="M17.7375,5.53666667 C17.1141667,2.37416667 14.3366667,0 11,0 C8.35083333,0 6.05,1.50333333 4.90416667,3.70333333 C2.145,3.99666667 0,6.33416667 0,9.16666667 C0,12.2008333 2.46583333,14.6666667 5.5,14.6666667 L17.4166667,14.6666667 C19.9466667,14.6666667 22,12.6133333 22,10.0833333 C22,7.66333333 20.1208333,5.70166667 17.7375,5.53666667 L17.7375,5.53666667 Z M12.8333333,8.25 L12.8333333,11.9166667 L9.16666667,11.9166667 L9.16666667,8.25 L6.41666667,8.25 L11,3.66666667 L15.5833333,8.25 L12.8333333,8.25 L12.8333333,8.25 Z" id="upload_icon"></path>
                </g>
            </g>
        </g>
    </g>
</svg>