<?xml version="1.0" encoding="UTF-8"?>
<svg width="19px" height="19px" viewBox="0 0 19 19" version="1.1" xmlns="http://www.w3.org/2000/svg" xmlns:xlink="http://www.w3.org/1999/xlink">
    <!-- Generator: Sketch 43.2 (39069) - http://www.bohemiancoding.com/sketch -->
    <title>volume-icon</title>
    <desc>Created with Sketch.</desc>
    <defs></defs>
    <g id="player_v01" stroke="none" stroke-width="1" fill="none" fill-rule="evenodd">
        <g id="mvp-paused-ad" transform="translate(-247.000000, -373.000000)" fill="#FFFFFF">
            <g id="player-control" transform="translate(88.000000, 321.000000)">
                <g id="slide">
                    <path d="M159,58 L159,64 L163,64 L168,69 L168,53 L163,58 L159,58 L159,58 Z M172.5,61 C172.5,59.23 171.48,57.71 170,56.97 L170,65.02 C171.48,64.29 172.5,62.77 172.5,61 L172.5,61 Z M170,52.23 L170,54.29 C172.89,55.15 175,57.83 175,61 C175,64.17 172.89,66.85 170,67.71 L170,69.77 C174.01,68.86 177,65.28 177,61 C177,56.72 174.01,53.14 170,52.23 L170,52.23 Z" id="volume-icon"></path>
                </g>
            </g>
        </g>
    </g>
</svg>
